<svg width="72" height="72" viewBox="0 0 72 72" fill="none" xmlns="http://www.w3.org/2000/svg">
<rect width="72" height="72" rx="36" fill="#303972"/>
<path d="M30.2545 19.5092C27.9688 20.6423 26.0464 22.3931 24.7052 24.5633C23.3641 26.7334 22.6578 29.2359 22.6666 31.787V37.7167C22.6677 38.5871 23.014 39.4216 23.6295 40.0372C24.245 40.6527 25.0795 40.9989 25.95 41H29.3333V51C29.3333 51.442 29.5089 51.866 29.8215 52.1785C30.134 52.4911 30.558 52.6667 31 52.6667C31.442 52.6667 31.8659 52.4911 32.1785 52.1785C32.4911 51.866 32.6666 51.442 32.6666 51V21C32.6664 20.716 32.5936 20.4367 32.4552 20.1887C32.3168 19.9407 32.1173 19.7322 31.8757 19.5828C31.6341 19.4335 31.3584 19.3484 31.0747 19.3355C30.7909 19.3226 30.5086 19.3824 30.2545 19.5092ZM29.3333 37.6833L26 37.7167V31.787C25.995 30.3525 26.2888 28.9327 26.8627 27.618C27.4366 26.3034 28.278 25.1226 29.3333 24.151V37.6833ZM46 21V27.6667C45.9994 28.1085 45.8236 28.5321 45.5112 28.8445C45.1988 29.157 44.7752 29.3328 44.3333 29.3333V21C44.3333 20.558 44.1577 20.134 43.8452 19.8215C43.5326 19.5089 43.1087 19.3333 42.6666 19.3333C42.2246 19.3333 41.8007 19.5089 41.4881 19.8215C41.1756 20.134 41 20.558 41 21V29.3333C40.5581 29.3328 40.1345 29.157 39.8221 28.8445C39.5097 28.5321 39.3339 28.1085 39.3333 27.6667V21C39.3333 20.558 39.1577 20.134 38.8452 19.8215C38.5326 19.5089 38.1087 19.3333 37.6666 19.3333C37.2246 19.3333 36.8007 19.5089 36.4881 19.8215C36.1756 20.134 36 20.558 36 21V27.6667C36.0014 28.9923 36.5287 30.2632 37.4661 31.2006C38.4034 32.138 39.6743 32.6652 41 32.6667V51C41 51.442 41.1756 51.866 41.4881 52.1785C41.8007 52.4911 42.2246 52.6667 42.6666 52.6667C43.1087 52.6667 43.5326 52.4911 43.8452 52.1785C44.1577 51.866 44.3333 51.442 44.3333 51V32.6667C45.6589 32.6652 46.9299 32.138 47.8672 31.2006C48.8046 30.2632 49.3319 28.9923 49.3333 27.6667V21C49.3333 20.558 49.1577 20.134 48.8452 19.8215C48.5326 19.5089 48.1087 19.3333 47.6666 19.3333C47.2246 19.3333 46.8007 19.5089 46.4881 19.8215C46.1756 20.134 46 20.558 46 21Z" fill="white"/>
</svg>
