<svg width="18" height="18" viewBox="0 0 18 18" fill="none" xmlns="http://www.w3.org/2000/svg">
<path d="M15 2.25H13.5V1.5C13.5 1.30109 13.421 1.11032 13.2803 0.96967C13.1397 0.829018 12.9489 0.75 12.75 0.75C12.5511 0.75 12.3603 0.829018 12.2197 0.96967C12.079 1.11032 12 1.30109 12 1.5V2.25H9.75V1.5C9.75 1.30109 9.67098 1.11032 9.53033 0.96967C9.38968 0.829018 9.19891 0.75 9 0.75C8.80109 0.75 8.61032 0.829018 8.46967 0.96967C8.32902 1.11032 8.25 1.30109 8.25 1.5V2.25H6V1.5C6 1.30109 5.92098 1.11032 5.78033 0.96967C5.63968 0.829018 5.44891 0.75 5.25 0.75C5.05109 0.75 4.86032 0.829018 4.71967 0.96967C4.57902 1.11032 4.5 1.30109 4.5 1.5V2.25H3C2.40326 2.25 1.83097 2.48705 1.40901 2.90901C0.987053 3.33097 0.75 3.90326 0.75 4.5V15C0.75 15.5967 0.987053 16.169 1.40901 16.591C1.83097 17.0129 2.40326 17.25 3 17.25H15C15.5967 17.25 16.169 17.0129 16.591 16.591C17.0129 16.169 17.25 15.5967 17.25 15V4.5C17.25 3.90326 17.0129 3.33097 16.591 2.90901C16.169 2.48705 15.5967 2.25 15 2.25ZM2.25 4.5C2.25 4.30109 2.32902 4.11032 2.46967 3.96967C2.61032 3.82902 2.80109 3.75 3 3.75H4.5V4.5C4.5 4.69891 4.57902 4.88968 4.71967 5.03033C4.86032 5.17098 5.05109 5.25 5.25 5.25C5.44891 5.25 5.63968 5.17098 5.78033 5.03033C5.92098 4.88968 6 4.69891 6 4.5V3.75H8.25V4.5C8.25 4.69891 8.32902 4.88968 8.46967 5.03033C8.61032 5.17098 8.80109 5.25 9 5.25C9.19891 5.25 9.38968 5.17098 9.53033 5.03033C9.67098 4.88968 9.75 4.69891 9.75 4.5V3.75H12V4.5C12 4.69891 12.079 4.88968 12.2197 5.03033C12.3603 5.17098 12.5511 5.25 12.75 5.25C12.9489 5.25 13.1397 5.17098 13.2803 5.03033C13.421 4.88968 13.5 4.69891 13.5 4.5V3.75H15C15.1989 3.75 15.3897 3.82902 15.5303 3.96967C15.671 4.11032 15.75 4.30109 15.75 4.5V6.75H2.25V4.5ZM15.75 15C15.75 15.1989 15.671 15.3897 15.5303 15.5303C15.3897 15.671 15.1989 15.75 15 15.75H3C2.80109 15.75 2.61032 15.671 2.46967 15.5303C2.32902 15.3897 2.25 15.1989 2.25 15V8.25H15.75V15Z" fill="#FB7D5B"/>
</svg>
